<svg width="32" height="32" viewBox="0 0 32 32" fill="none" xmlns="http://www.w3.org/2000/svg">
<path fill-rule="evenodd" clip-rule="evenodd" d="M10.8223 13.8719L16.0011 8.69305L21.1844 13.8763L24.1976 10.8631L16.0011 2.66663L7.80912 10.8587L10.8223 13.8719ZM2.6665 16.0009L5.67893 12.9885L8.69135 16.0009L5.67893 19.0133L2.6665 16.0009ZM16.0011 23.3109L10.8223 18.1321L7.80465 21.1408L7.80908 21.1453L16.0011 29.3373L24.1976 21.1408L21.1844 18.1276L16.0011 23.3109ZM23.3083 16.003L26.3208 12.9906L29.3332 16.003L26.3208 19.0154L23.3083 16.003ZM16.0011 12.9444L19.0587 16.002L16.0011 19.064L12.9436 16.0064V15.9975L13.4805 15.4606L13.7424 15.2032L16.0011 12.9444Z" fill="#F3BA2F"/>
</svg>
